# xmcd CD database file
#
# Track frame offsets:
#	150
#	21927
#	46590
#
# Disc length: 849 seconds
#
# Revision: 3
# Processed by: cddbd v1.5.1PL0 Copyright (c) Steve Scherf et al.
# Submitted via: FreeDB 13.2
#
DISCID=18034f03
DTITLE=Deborah Sasson - (Ay, Ay, Ay) Una Noche D'Amor
DYEAR=1990
DGENRE=Pop
TTITLE0=(Ay, Ay, Ay) Una Noche D'Amor (Extended Mix)
TTITLE1=(Ay, Ay, Ay) Una Noche D'Amor (Special Club Mix)
TTITLE2=(Ay, Ay, Ay) Una Noche D'Amor (Radio Edit)
EXTD=YEAR: 1990
EXTT0=
EXTT1=
EXTT2=
PLAYORDER=
